<svg width="296" height="256" viewBox="0 0 296 256" fill="none" xmlns="http://www.w3.org/2000/svg">
<path d="M122.351 25.9434C124.257 25.6994 126.009 25.7097 127.654 26.8357C134.413 31.4612 143.692 65.5817 145.665 74.9164C147.325 71.1487 149.618 67.5357 152.161 64.3097C158.164 56.6702 163.392 48.3944 169.383 40.7532C170.553 39.2609 172.712 37.4014 174.321 36.5934C177.109 35.1939 180.851 36.2857 182.488 38.8857C182.748 39.2982 182.733 39.3979 183.206 39.5982C188.846 36.1094 193.071 34.6327 195.814 42.3562C202.346 38.6494 206.153 42.1046 205.921 49.1084C206.526 48.4651 207.076 47.9637 207.723 47.3949C212.341 43.5142 219.114 46.8457 216.344 53.1334C215.021 56.2099 212.903 58.8877 211.048 61.6672C203.528 72.9307 195.841 84.0477 189.981 96.3019C187.488 101.516 186.711 106.875 185.751 112.507C191.581 109.773 207.661 98.0697 211.416 97.4597C212.663 97.2569 213.951 97.4724 214.939 98.2939C215.719 98.9406 216.151 99.8879 216.236 100.886C216.358 102.296 215.831 103.703 215.103 104.887C212.168 109.669 207.171 113.731 203.193 117.682C201.016 119.842 198.978 122.159 196.981 124.483C192.996 129.119 189.913 134.877 190.446 141.183C190.893 146.473 194.046 152.043 198.128 155.39C202.533 159.001 215.083 164.766 220.881 164.649C223.278 164.599 225.511 163.074 227.893 162.889C232.453 162.531 237.121 162.811 241.691 162.889L259.846 163.099L277.866 163.531C281.971 163.616 286.468 163.584 290.541 164.056C292.666 164.301 293.678 165.021 295.238 166.334C294.606 168.229 293.406 170.489 293.016 172.054C293.441 172.364 294.411 173.089 294.378 173.586C294.273 175.219 293.784 177.496 293.561 179.131C293.211 181.686 293.238 184.246 292.913 186.739C292.363 189.999 291.968 191.851 291.316 195.204C290.078 201.539 290.786 223.734 283.426 225.766C280.546 226.561 267.909 224.709 264.031 224.541C256.076 224.164 248.243 223.024 240.336 222.224C236.731 222.021 232.993 221.744 229.386 221.754C224.966 221.764 221.191 219.814 216.971 218.706C213.691 217.846 210.333 217.024 207.068 216.076C201.996 214.604 197.203 212.629 192.416 210.416C187.708 208.321 183.439 206.501 179.064 203.739C172.705 199.606 164.003 195.559 157.875 190.551C150.61 184.614 141.349 176.911 137.437 168.201C136.271 165.604 135.801 161.569 135.481 158.74C132.289 160.9 126.79 161.52 124.776 163.484C121.943 166.249 118.924 173.766 116.978 177.359C112.444 185.729 100.36 204.744 93.3583 210.359C95.9585 218.909 92.3048 221.974 85.8375 226.831C83.9315 228.264 81.9625 229.644 80.0003 230.999C60.2648 244.674 37.3345 253.024 13.427 255.244C10.3905 255.504 6.62275 255.886 3.618 255.754L1.411 254.334C1.39175 251.961 2.024 246.684 2.26625 244.136C2.9385 237.069 3.5325 229.984 4.17375 222.924C5.4615 208.746 2.74475 196.401 0 182.584C20.5333 183.179 40.0818 167.026 54.4668 154.118C55.5683 153.13 56.6995 152.183 57.842 151.244C58.3458 153.106 59.198 154.787 60.0107 156.535C60.6042 156.022 61.189 155.499 61.7647 154.965C73.899 143.715 80.0965 134.307 84.944 118.381C85.7322 115.791 87.8045 112.612 88.548 109.595C91.8605 96.1527 90.347 81.5277 85.3675 68.6854C82.7593 61.6527 75.0373 54.7009 75.2703 46.9387C75.4763 40.0809 79.6848 38.1382 85.795 38.5719C86.1758 37.6782 86.2775 36.5162 86.5645 35.5802C87.6585 32.0127 90.3357 28.8987 94.4007 29.4982C98.5917 30.1162 100.49 32.6429 102.868 35.6882C104.171 32.0177 105.94 28.5679 110.85 29.8497C115.028 30.9402 116.412 36.3241 118.373 39.7144C117.18 35.0024 116.451 27.8709 122.351 25.9434Z" fill="black"/>
<path d="M123.846 30.0459C127.911 31.3714 135.545 51.1536 136.637 56.1104C139.234 67.8934 143.4 81.3721 143.896 93.5009C143.987 95.7216 145.841 97.9479 144.467 99.6864C144.639 103.755 144.73 109.133 145.012 112.466C145.403 117.094 142.264 126.685 148.879 125.042C148.524 125.13 149.555 125.647 149.595 125.659C152.943 123.924 158.963 113.467 161.164 109.914C163.959 105.4 164.69 100.442 169.429 97.1641C169.529 99.8094 169.048 101.646 170.178 103.999C169.779 107.525 169.113 112.249 168.096 115.581C166.922 119.32 165.185 122.858 162.946 126.073C159.555 130.941 154.257 135.594 150.228 140.115C147.315 143.383 144.215 147.286 140.838 150.12C139.293 151.417 137.786 150.463 136.363 151.22C135.76 152.007 135.704 152.894 135.508 153.895C133.534 155.085 132.338 155.74 130.269 156.607C128.756 157.383 123.189 158.42 122.183 159.653C118.295 164.417 115.928 170.489 112.8 175.834C109.359 181.717 106.18 187.974 102.096 193.462C98.5719 198.197 95.1324 202.824 91.3701 207.367C89.8349 204.909 87.9124 202.529 86.3094 200.087C78.1894 187.714 69.4276 175.324 62.8916 161.989C65.2506 159.47 68.5016 157.02 70.9476 154.305C80.2124 144.023 84.8416 135.55 89.2081 122.728C90.9908 116.445 94.1639 111.901 94.8099 105.035C95.5114 101.516 95.2136 98.1374 95.3304 94.6009C95.8651 78.3949 89.5164 62.0564 79.8414 49.0609C80.7549 45.0024 81.0026 43.7516 85.4381 42.5941C88.3421 44.2611 95.4898 64.4316 97.1046 68.5041L104.14 85.9896C106.082 85.3209 107.754 84.5654 109.624 83.7384C108.604 80.7869 106.321 76.2106 104.992 73.1579L95.1344 50.4322C93.7031 47.1077 90.8321 41.8741 90.4763 38.3866C90.3096 36.7544 91.9541 35.0814 93.0944 34.0061C101.221 38.4144 109.813 62.2604 113.56 71.0369C114.648 73.5866 116.01 76.8089 116.837 79.4709C118.43 78.9724 120.026 78.4849 121.626 78.0086C121.015 75.7031 120.07 73.2749 119.304 70.9894C117.326 65.0252 115.236 59.0984 113.037 53.2122C111.172 48.1402 109.587 42.0646 106.763 37.6564C107.416 36.2554 108.116 34.9181 108.827 33.5459C113.784 37.8389 116.978 49.7179 120.065 55.9586C121.318 58.4921 124.982 72.6379 124.734 75.0964C126.789 74.6741 128.879 74.1469 130.923 73.6571C129.649 68.4676 128.715 63.1199 127.472 57.8979C125.56 49.8646 123.187 40.6949 122.116 32.5419C122.732 31.4451 122.953 30.9781 123.846 30.0459Z" fill="white"/>
<path d="M176.621 41.4951L177.439 41.5956C177.816 41.9824 177.976 42.1229 178.074 42.6826C178.736 46.4591 163.547 64.8121 160.717 69.2831L160.512 69.6109C162.115 71.0484 163.335 71.8651 165.167 72.9659C171.151 63.1419 179.024 54.1696 185.581 44.7374C187.206 42.4031 189.836 42.0991 192.394 41.9141C187.926 52.1659 176.577 64.7441 169.541 73.3584C171.164 74.9601 172.333 75.7459 174.223 77.0294C181.279 66.6901 189.474 57.2079 197.209 47.3916C198.046 46.3276 198.786 45.6224 200.159 45.5184C200.959 46.0444 200.699 45.8349 201.171 46.7909C201.004 49.5964 188.886 63.9286 186.754 67.6726C185.209 70.3861 181.041 75.6241 179.029 78.1436C180.266 78.9221 182.404 80.7111 183.624 81.6734C185.184 79.4204 188.526 75.8844 190.466 73.7131C194.509 69.2394 198.474 64.6966 202.359 60.0866C204.059 58.0901 205.836 56.1701 207.566 54.2426C207.951 53.8156 209.859 50.6689 210.266 50.0149C211.044 49.9806 211.784 50.4216 212.564 50.7491C210.086 55.0564 207.216 58.7204 204.546 62.8466C202.151 66.5531 200.314 70.2924 197.684 73.9849C195.331 77.2879 192.921 80.8631 190.704 84.2589C183.029 96.0094 181.064 107.354 180.654 121.145C185.351 118.568 190.291 115.461 194.786 112.613C197.761 110.727 208.306 103.016 210.866 102.153L211.189 102.47C210.469 103.688 207.844 106.196 206.706 107.453L199.104 115.99C195.636 119.819 194.114 120.987 191.101 125.398C184.849 134.726 184.324 144.046 191.081 153.35C194.276 157.747 199.531 162.857 204.731 164.637C210.309 166.544 216.669 168.552 222.469 169.489C224.349 168.622 225.714 168.029 227.666 167.332C227.676 170.562 227.701 177.409 227.209 180.454C225.244 192.607 225.716 204.112 225.339 216.304C205.381 212.384 186.371 204.639 169.355 193.499C166.812 191.814 164.075 189.524 161.601 187.672C159.245 185.909 156.865 184.264 154.507 182.527C146.092 176.337 140.453 167.079 138.811 156.761C154.015 145.393 169.85 129.01 173.74 109.734C174.49 106.017 175.661 92.8384 169.53 93.2686C161.08 93.8619 157.112 109.83 152.833 115.855C151.23 118.113 151.01 118.664 148.864 120.636C149.515 112.052 148.947 104.134 148.383 95.5894C148.278 94.0049 147.557 87.8939 147.859 86.6644C150.698 75.0949 158.713 65.4589 165.534 55.9591C168.606 51.6811 172.548 44.5196 176.621 41.4951Z" fill="white"/>
<path d="M233.609 188.404C234.596 188.239 237.216 188.322 238.374 188.244C245.041 187.809 251.531 188.987 258.109 189.144C268.279 189.389 278.086 189.482 288.246 190.467C287.549 193.879 287.419 197.764 287.069 201.224L286.746 201.304C282.921 201.527 276.601 200.639 272.556 200.352C268.169 200.039 262.994 200.164 258.796 199.657C249.309 198.509 240.181 197.224 230.576 196.992C230.611 195.042 230.556 190.482 231.089 188.799C231.756 188.414 232.801 188.452 233.609 188.404Z" fill="white"/>
<path d="M236.909 175.904C243.824 175.189 251.544 176.177 258.444 176.762C266.509 177.444 274.562 177.284 282.594 178.519C284.812 178.859 287.247 179.199 289.472 179.299C289.424 181.822 289.202 185.044 288.964 187.552C287.457 187.519 285.639 187.344 284.112 187.239C271.614 186.249 258.989 186.312 246.469 184.934C242.052 184.449 235.739 184.794 231.187 184.792C231.137 182.009 231.309 179.064 231.452 176.274L236.909 175.904Z" fill="white"/>
<path d="M232.417 200.899C239.932 200.184 251.427 202.376 259.199 202.881C262.852 203.119 266.254 202.956 269.879 203.139C275.509 203.424 281.299 204.241 286.924 204.329C286.672 206.211 286.622 211.896 285.849 213.181L285.199 213.304C276.272 212.449 267.737 211.956 258.772 211.651C254.652 211.514 250.149 210.746 246.009 210.359C240.544 209.844 235.129 209.631 229.642 209.531C229.927 206.814 229.874 204.044 230.324 201.359C230.819 200.904 231.694 200.954 232.417 200.899Z" fill="white"/>
<path d="M234.466 165.639C244.111 165.649 253.881 165.996 263.629 166.039L279.264 166.231C282.076 166.276 289.376 165.999 291.536 167.529C291.901 169.194 290.196 174.394 289.639 176.479C287.299 176.699 281.161 175.141 278.291 174.976C268.286 174.409 258.336 173.596 248.389 172.396C245.594 172.059 241.969 172.359 239.076 172.294C233.116 172.161 231.126 173.319 232.724 166.264C233.396 165.599 233.294 165.809 234.466 165.639Z" fill="white"/>
<path d="M229.436 213.344C241.744 212.837 252.994 214.742 265.216 214.969C271.541 215.087 278.989 215.262 285.196 216.272C284.836 218.599 284.851 219.097 283.944 221.239C283.434 222.079 283.399 222.144 282.674 222.789C281.384 223.164 277.011 222.154 275.409 222.162C267.926 222.189 260.656 220.699 253.309 220.024C245.351 219.292 237.246 219.319 229.269 218.392C229.416 216.887 229.404 214.892 229.436 213.344Z" fill="white"/>
<path d="M242.406 113.682L243.458 113.874C245.023 115.486 241.146 120.888 243.191 124.786C245.791 126.953 252.396 122.448 253.473 125.398C253.008 125.955 249.503 126.524 248.258 127.184C246.058 128.351 244.798 129.421 242.921 131.033C245.696 133.536 247.866 134.012 251.476 134.869L250.321 137.24C248.531 136.564 246.778 135.866 244.856 135.742C239.396 135.388 238.751 142.717 237.213 144.128C233.673 144.653 236.403 139.238 236.048 136.306L236.006 135.996C232.221 133.324 227.026 137.896 224.241 137.371C223.558 136.706 223.781 137.098 223.586 136.133C224.678 134.572 229.116 134.394 230.151 133.295C232.838 130.435 224.013 127.254 223.733 124.897C225.353 123.015 228.791 127.61 231.216 127.048C234.673 126.247 230.346 118.073 231.588 115.97L232.253 115.89C234.831 116.677 234.531 121.474 237.691 121.912C240.098 120.975 241.061 116.359 242.406 113.682Z" fill="black"/>
<path d="M240.622 123.128C240.837 123.268 240.954 123.652 240.999 123.894C241.354 125.741 242.189 126.646 243.512 127.86C240.614 129.734 240.767 130.308 241.774 133.54C240.417 134.548 239.519 135.377 238.272 136.532C237.837 135.399 237.744 135.047 236.947 134.103C235.297 133.157 234.842 133.152 232.979 132.83C232.927 131.229 232.449 130.584 232.074 129.022C233.024 128.036 233.252 128.571 234.719 126.758L234.942 126.48L234.957 124.489C235.774 123.254 238.147 123.715 240.622 123.128Z" fill="white"/>
<path d="M231.059 0L232.431 0.360504C233.561 2.1495 230.571 5.92175 231.771 10.708C233.956 12.77 238.709 10.3198 242.196 11.2455C241.404 12.642 237.371 13.1315 235.611 14.3738C233.989 15.5183 233.249 16.1988 231.801 17.5818C235.069 20.3118 237.031 19.59 239.879 21.831C240.094 21.9988 239.784 22.5335 239.649 22.8863C237.946 23.9963 234.921 21.1428 231.659 22.3048C227.799 23.6805 227.704 29.915 225.211 30.726C223.229 29.668 225.939 24.2703 224.386 22.0335L223.974 21.9078C220.589 20.8605 216.499 22.8925 213.304 24.1925C212.731 23.6403 212.566 22.7328 212.326 21.9425C214.466 21.3328 218.401 20.593 219.494 18.84C219.716 15.2213 211.414 13.0818 212.714 10.8013C215.289 10.3208 218.066 14.8008 221.024 12.7563C222.496 10.528 220.289 6.28401 220.084 3.73251C220.009 2.80676 220.234 2.784 220.809 2.18975C223.261 1.7525 224.229 11.0755 228.029 7.17075C228.974 6.198 230.454 1.5805 231.059 0Z" fill="black"/>
<path d="M229.756 9.3623C229.911 10.7153 230.089 12.6131 231.429 13.3598C231.794 13.5636 231.986 13.6988 232.239 14.0428C229.016 17.2038 229.809 16.0978 230.521 19.6246C230.149 20.5331 230.014 20.3831 229.024 21.0563C228.346 21.7738 228.076 22.0293 227.289 22.6228C227.004 22.1783 225.809 20.3153 225.564 20.2361C220.921 18.7268 222.659 19.2633 220.514 15.5456C223.559 13.9856 224.061 12.9268 223.866 9.51256L225.649 10.3643L229.756 9.3623Z" fill="white"/>
<path d="M181.122 220.651L182.177 221.106C183.029 222.526 180.382 229.019 181.412 231.216C182.689 233.946 188.899 230.886 191.914 232.256C191.804 232.914 190.627 233.279 190.099 233.369C186.357 234.021 184.422 235.759 181.487 238.266C184.264 240.631 185.679 240.791 189.184 241.901C189.709 242.526 189.529 242.456 189.562 243.501C188.207 244.661 182.972 242.186 181.389 242.896C178.559 244.164 177.264 250.351 174.75 251.531C173.21 250.536 175.288 245.469 174.407 242.949C169.461 240.606 163.702 246.539 162.265 244.161C162.54 241.124 166.665 242.299 169.188 240.151C170.546 237.166 163.075 234.626 162.213 232.046C163.342 230.079 167.719 235.039 170.179 234.056C173.235 232.831 169.037 225.841 170.206 223.334C170.993 222.899 170.57 222.994 171.537 223.144C172.418 224.266 174.105 227.616 175.178 229.241C177.779 228.549 178.299 228.134 179.232 225.364C179.797 223.681 180.337 222.244 181.122 220.651Z" fill="black"/>
<path d="M178.819 230.329L179.126 230.259L179.499 230.519C179.844 233.061 180.254 232.879 182.026 234.946C181.146 235.756 180.519 236.274 179.826 237.269C179.634 238.276 180.071 239.456 180.301 240.554C180.059 241.119 177.796 242.841 177.096 243.469C176.56 242.456 176.321 242.184 175.576 241.301C173.036 239.431 171.826 241.446 170.56 236.624C171.025 235.301 172.405 235.854 173.316 234.021C173.91 232.824 173.283 231.271 173.906 230.621C175.876 231.446 176.66 230.921 178.819 230.329Z" fill="white"/>
<path d="M41.4221 75.9658C41.8466 75.9981 42.2841 76.0673 42.7078 76.1246C42.8311 76.2853 42.9543 76.4461 43.0776 76.6068C42.6748 80.5861 41.0963 82.4853 42.1308 86.7096C43.9446 88.3706 49.1648 86.3456 52.2886 87.1673L52.3508 87.4786C50.9446 88.4181 48.7483 88.8151 47.2153 89.4998C45.6393 90.2036 43.3883 92.0323 42.0933 93.1816C44.2626 95.2586 46.8721 96.4453 49.8458 96.8351L50.1251 96.8688L50.3881 97.2681L49.6256 99.3566C40.6938 96.3961 39.6298 98.2533 36.5656 106.811C35.9831 106.548 35.5118 106.269 34.9608 105.954C34.3556 104.926 34.6441 103.514 34.9423 102.404C35.4001 100.7 35.3253 100.059 35.2673 98.3056C32.4046 95.1688 25.3718 100.134 23.4546 99.8526C22.8318 99.1563 22.7873 99.3191 22.6328 98.5358C23.8921 96.5368 27.4421 97.1946 29.6116 95.1606C30.9651 91.6668 23.4873 89.9146 22.9716 86.8993C24.7623 86.2118 29.1076 90.0956 31.4906 88.7523C32.8641 86.4393 30.4496 81.7641 30.3216 79.1341C30.2933 78.5518 30.6516 78.4008 31.0718 78.0558C32.8901 78.0553 33.2251 80.1991 34.0831 81.6771C37.9446 88.3303 40.3306 78.8521 41.4221 75.9658Z" fill="black"/>
<path d="M34.1364 85.506C36.4602 86.4405 37.4279 85.9538 39.8994 85.416C40.5717 87.6208 40.6744 88.5908 42.7142 89.8528C41.8932 91.056 40.9427 91.3953 40.1797 92.9163C40.1302 94.0453 40.4299 94.0173 41.0452 95.1965C40.7424 96.1868 40.7032 95.9585 39.7227 96.7498C39.1147 97.287 38.6664 97.6788 38.0147 98.1585L37.5057 98.0608C35.6159 94.924 33.2297 95.7843 32.0739 94.7848C31.9734 92.7445 30.9047 92.347 31.4617 90.859C34.0322 89.7283 34.3052 88.6505 34.1557 85.8393L34.1364 85.506Z" fill="white"/>
<path d="M136.715 205.914L137.085 206.109C138.284 209.332 138.437 213.727 139.197 217.172C141.534 227.764 143.35 238.627 145.869 249.162C144.277 249.472 142.591 249.724 140.984 249.989C140.468 250.007 140.668 250.024 140.163 249.809C139.737 248.922 138.314 241.069 138.021 239.599L132.673 212.617C131.558 206.789 130.906 206.727 136.715 205.914Z" fill="black"/>
<path d="M243.374 44.7217C244.847 46.0207 244.857 46.8682 246.724 48.1589L247.067 48.3929L247.059 48.7619C245.049 51.6527 237.527 59.7929 234.769 62.7712C230.094 67.8187 223.374 76.0157 218.587 80.4867C216.782 79.6792 215.674 78.4537 214.329 77.0507C216.324 74.1192 222.294 68.2294 225.052 65.1477L236.152 52.7059C238.374 50.1822 240.974 46.9707 243.374 44.7217Z" fill="black"/>
<path d="M18.4575 45.7988C20.0947 46.1476 21.9782 46.0473 23.6542 46.1313C27.3132 46.3148 59.1697 47.9488 59.7395 48.7943C60.4752 49.8863 59.9757 52.7381 59.8892 54.0676C56.2455 54.0926 51.9747 53.4308 48.258 53.2318C38.1107 52.6888 28.2517 51.8763 18.0742 51.7361C18.2862 49.5918 18.4097 47.9723 18.4575 45.7988Z" fill="black"/>
<path d="M121.473 210.194C123.417 210.574 125.368 210.917 127.326 211.224C126.569 218.237 125.669 225.232 124.625 232.207C124.14 235.549 123.344 239.739 123.075 243.019L117.297 242.454C117.648 239.104 118.564 235.677 118.966 232.319C119.84 225.002 121.289 217.557 121.473 210.194Z" fill="black"/>
<path d="M32.2084 21.1191C34.5809 22.3441 37.1043 24.2029 39.4288 25.2996C45.8903 28.3476 53.4611 33.4821 60.1651 35.6166C59.1498 37.2524 58.2561 39.2071 57.4036 40.9521C56.9049 40.7786 51.2989 37.9556 50.5596 37.5371C44.4734 34.0911 35.0376 29.9914 29.5898 26.1064C30.1103 24.8576 31.5216 22.4019 32.2084 21.1191Z" fill="black"/>
<path d="M251.022 68.5361L251.422 68.6809C252.357 70.1311 253.059 71.7734 253.784 73.3446C251.352 74.8269 248.569 75.7666 246.267 77.0399C240.684 80.1266 231.632 84.1181 226.662 87.7451C226.064 86.9149 224.482 83.7126 223.722 82.4646C232.729 78.1831 241.524 72.4996 251.022 68.5361Z" fill="black"/>
</svg>
