<svg width="200" height="174" viewBox="0 0 200 174" fill="none" xmlns="http://www.w3.org/2000/svg">
<path fill-rule="evenodd" clip-rule="evenodd" d="M82.8825 17.5748C84.174 17.4095 85.3614 17.4161 86.4756 18.1789C91.0541 21.3132 97.3392 44.4261 98.6759 50.7496C99.8005 48.1975 101.354 45.75 103.077 43.5648C107.143 38.3898 110.685 32.7833 114.743 27.6071C115.536 26.5962 116.999 25.3366 118.089 24.7892C119.977 23.8412 122.512 24.5803 123.621 26.3416C123.797 26.6208 123.787 26.6889 124.107 26.8245C127.928 24.4611 130.79 23.4608 132.647 28.6927C137.073 26.1817 139.652 28.5226 139.495 33.2671C139.905 32.8314 140.277 32.4912 140.716 32.106C143.844 29.4773 148.431 31.7341 146.555 35.9934C145.659 38.0773 144.225 39.8918 142.968 41.7746C137.874 49.4045 132.666 56.9354 128.697 65.2364C127.008 68.7681 126.481 72.3987 125.831 76.2143C129.78 74.3619 140.673 66.4343 143.217 66.021C144.062 65.8837 144.935 66.0296 145.603 66.5861C146.132 67.0242 146.425 67.6662 146.482 68.3425C146.565 69.2974 146.208 70.2501 145.715 71.052C143.727 74.2913 140.341 77.0436 137.647 79.7198C136.172 81.1831 134.792 82.7525 133.439 84.3265C130.739 87.4674 128.651 91.3682 129.011 95.6398C129.315 99.2227 131.451 102.997 134.216 105.264C137.2 107.71 145.702 111.616 149.629 111.536C151.253 111.502 152.765 110.469 154.379 110.343C157.468 110.101 160.63 110.291 163.726 110.343L176.024 110.486L188.231 110.779C191.012 110.837 194.059 110.815 196.818 111.135C198.257 111.301 198.943 111.788 200 112.677C199.572 113.961 198.759 115.492 198.495 116.552C198.783 116.763 199.439 117.253 199.417 117.59C199.346 118.696 199.015 120.239 198.864 121.347C198.627 123.077 198.645 124.812 198.425 126.5C198.052 128.708 197.785 129.964 197.343 132.235C196.505 136.527 196.984 151.56 191.998 152.938C190.047 153.476 181.487 152.222 178.86 152.108C173.471 151.852 168.164 151.08 162.808 150.538C160.366 150.401 157.834 150.213 155.391 150.22C152.396 150.227 149.839 148.906 146.98 148.155C144.758 147.573 142.484 147.016 140.272 146.374C136.836 145.376 133.589 144.038 130.346 142.54C127.157 141.121 124.265 139.888 121.301 138.017C116.994 135.217 111.099 132.475 106.948 129.083C102.026 125.061 95.753 119.843 93.1028 113.943C92.3127 112.183 91.9941 109.45 91.7773 107.534C89.615 108.997 85.8895 109.417 84.5252 110.747C82.6063 112.62 80.5608 117.713 79.243 120.146C76.1711 125.816 67.9859 138.697 63.2429 142.501C65.0041 148.292 62.5288 150.369 58.1479 153.66C56.8569 154.63 55.5229 155.565 54.1938 156.482C40.8247 165.746 25.2908 171.403 9.0955 172.907C7.03857 173.083 4.48623 173.342 2.45084 173.252L0.955684 172.291C0.942646 170.684 1.37073 167.108 1.53489 165.383C1.99027 160.595 2.39293 155.795 2.82732 151.012C3.6996 141.408 1.85931 133.045 0 123.685C13.9095 124.088 27.1519 113.146 36.8966 104.402C37.6427 103.733 38.4092 103.091 39.1831 102.455C39.5243 103.716 40.1021 104.856 40.6526 106.04C41.0545 105.692 41.4508 105.338 41.8407 104.976C50.0604 97.3554 54.2587 90.9818 57.5424 80.1939C58.0764 78.4396 59.4801 76.2853 59.9838 74.2416C62.2278 65.1357 61.2024 55.2283 57.8293 46.5288C56.0625 41.7648 50.8318 37.055 50.9894 31.7969C51.129 27.1515 53.9799 25.8357 58.1189 26.1294C58.3768 25.5241 58.4459 24.7362 58.6402 24.1022C59.3814 21.6857 61.1951 19.5765 63.9487 19.9825C66.7877 20.4011 68.0738 22.1128 69.6848 24.1756C70.5671 21.6892 71.7662 19.3526 75.0923 20.2209C77.922 20.9599 78.8601 24.6068 80.1886 26.9033C79.3799 23.7113 78.8859 18.8805 82.8825 17.5748ZM179.662 145.624C171.382 145.469 163.761 144.179 155.424 144.523C155.402 145.571 155.41 146.923 155.31 147.942C160.715 148.571 166.205 148.552 171.596 149.048C176.573 149.506 181.498 150.515 186.567 150.496C187.652 150.491 190.614 151.175 191.488 150.921C191.979 150.484 192.003 150.44 192.348 149.871C192.963 148.42 192.953 148.083 193.197 146.507C188.992 145.822 183.947 145.703 179.662 145.624ZM119.646 28.1095C116.887 30.1584 114.217 35.0095 112.136 37.9075C107.515 44.3426 102.086 50.8704 100.162 58.7076C99.9581 59.5411 100.446 63.6797 100.517 64.7535C100.899 70.5414 101.284 75.9066 100.843 81.7214C102.297 80.3851 102.447 80.0113 103.532 78.4819C106.431 74.4001 109.119 63.5835 114.843 63.1816C118.996 62.8905 118.203 71.8177 117.695 74.3352C115.059 87.3935 104.332 98.4919 94.0329 106.193C95.1458 113.182 98.9654 119.454 104.666 123.647C106.263 124.824 107.876 125.938 109.472 127.132C111.148 128.387 113.002 129.938 114.725 131.08C126.251 138.626 139.129 143.873 152.649 146.528C152.905 138.269 152.585 130.475 153.916 122.243C154.249 120.18 154.232 115.541 154.225 113.353C152.903 113.826 151.978 114.227 150.704 114.815C146.776 114.18 142.467 112.82 138.689 111.527C135.166 110.322 131.607 106.861 129.442 103.882C124.865 97.579 125.22 91.2653 129.456 84.9468C131.496 81.959 132.528 81.1673 134.877 78.5735L140.027 72.7903C140.798 71.9389 142.575 70.2398 143.063 69.4147L142.845 69.2005C141.11 69.785 133.967 75.0083 131.952 76.2857C128.907 78.2154 125.56 80.3201 122.378 82.0656C122.656 72.7235 123.987 65.0382 129.186 57.0784C130.689 54.7781 132.321 52.356 133.915 50.1185C135.696 47.6173 136.941 45.0841 138.563 42.5734C140.372 39.7784 142.316 37.296 143.994 34.3784C143.466 34.1565 142.965 33.8574 142.438 33.8806C142.162 34.3243 140.87 36.4558 140.61 36.745C139.438 38.0507 138.233 39.3514 137.082 40.7038C134.45 43.8266 131.764 46.9041 129.025 49.9347C127.711 51.4054 125.447 53.8005 124.39 55.3266C123.564 54.6749 122.116 53.4632 121.278 52.9357C122.641 51.229 125.464 47.6807 126.511 45.8425C127.955 43.3064 136.162 33.5979 136.277 31.6965C135.957 31.0494 136.133 31.1911 135.591 30.8351C134.662 30.9056 134.16 31.3832 133.593 32.104C128.353 38.7536 122.801 45.1769 118.021 52.1808C116.741 51.3115 115.949 50.7791 114.85 49.6942C119.616 43.8589 127.305 35.3377 130.331 28.393C128.599 28.5184 126.817 28.7245 125.716 30.3058C121.274 36.6952 115.941 42.7734 111.887 49.4282C110.646 48.6827 109.82 48.1293 108.734 47.1558L108.873 46.9336C110.79 43.905 121.078 31.4727 120.63 28.9137C120.564 28.5347 120.456 28.4393 120.2 28.1775L119.646 28.1095ZM175.587 137.435C170.321 137.093 162.534 135.608 157.443 136.092C156.954 136.13 156.361 136.095 156.026 136.404C155.721 138.222 155.757 140.099 155.564 141.94C159.281 142.007 162.949 142.152 166.651 142.501C169.456 142.763 172.506 143.283 175.297 143.376C181.37 143.583 187.152 143.916 193.199 144.496L193.64 144.413C194.163 143.542 194.197 139.691 194.368 138.416C190.558 138.357 186.635 137.803 182.821 137.61C180.366 137.486 178.061 137.596 175.587 137.435ZM83.8955 20.3536C83.2907 20.9849 83.1406 21.3012 82.7229 22.044C83.449 27.5669 85.0568 33.779 86.3517 39.2208C87.1935 42.758 87.8261 46.381 88.6894 49.8963C87.3043 50.228 85.8891 50.5855 84.4969 50.8715C84.6651 49.2062 82.1825 39.6247 81.3335 37.9075C79.2425 33.68 77.0794 25.6326 73.7217 22.7243C73.24 23.6538 72.7652 24.5602 72.3229 25.5092C74.2361 28.4953 75.3093 32.6109 76.5726 36.0466C78.0624 40.0339 79.4786 44.0491 80.819 48.0893C81.3377 49.6374 81.9779 51.2825 82.3916 52.8441C81.3078 53.1667 80.2264 53.4972 79.1474 53.8348C78.5874 52.0317 77.6649 49.8488 76.9275 48.1216C74.3896 42.1763 68.5685 26.0226 63.0637 23.0361C62.2913 23.7645 61.1775 24.8979 61.2904 26.0035C61.5316 28.366 63.4762 31.9116 64.4457 34.1635L71.1234 49.5582C72.0237 51.6261 73.57 54.7262 74.2612 56.7255C72.9945 57.2857 71.8617 57.7979 70.5462 58.2509L65.7799 46.4056C64.6858 43.6462 59.8444 29.9836 57.8772 28.8537C54.8726 29.6378 54.7049 30.4855 54.0861 33.2348C60.6399 42.038 64.9406 53.1061 64.5784 64.084C64.4993 66.4795 64.7006 68.7685 64.2255 71.1523C63.7878 75.8031 61.6387 78.8816 60.431 83.1378C57.4731 91.8233 54.3371 97.5637 48.061 104.529C46.4041 106.368 44.2017 108.028 42.6037 109.735C47.0313 118.768 52.9666 127.161 58.4671 135.542C59.553 137.197 60.8559 138.809 61.8959 140.474C64.4444 137.397 66.7741 134.262 69.1615 131.055C71.9277 127.337 74.0819 123.098 76.413 119.113C78.5313 115.492 80.1351 111.379 82.7687 108.151C83.4498 107.316 87.2205 106.614 88.2462 106.088C89.6474 105.501 90.4586 105.057 91.7955 104.251C91.9283 103.573 91.9664 102.972 92.3747 102.439C93.3383 101.926 94.3597 102.572 95.4061 101.694C97.6934 99.7738 99.7935 97.1303 101.767 94.9165C104.496 91.854 108.085 88.7018 110.382 85.4041C111.899 83.2259 113.076 80.829 113.871 78.2967C114.56 76.0397 115.012 72.8394 115.282 70.4505C114.516 68.857 114.842 67.612 114.774 65.8203C111.564 68.041 111.068 71.3999 109.175 74.4571C107.684 76.8644 103.606 83.9483 101.338 85.1239C101.309 85.1146 100.613 84.7655 100.853 84.7057C96.3726 85.8181 98.4979 79.3215 98.2334 76.1867C98.0426 73.9284 97.9809 70.2853 97.8644 67.5289C98.795 66.3514 97.5397 64.8433 97.4778 63.3392C97.1414 55.123 94.319 45.9918 92.5599 38.0098C91.8199 34.6518 86.6495 21.2525 83.8955 20.3536ZM174.848 128.13C170.392 128.023 165.996 127.226 161.479 127.52C160.695 127.573 158.92 127.517 158.251 127.629C157.704 127.661 156.996 127.635 156.544 127.896C156.184 129.036 156.221 132.125 156.197 133.446C162.703 133.604 168.887 134.474 175.314 135.251C178.157 135.595 181.663 135.51 184.635 135.722C187.375 135.917 191.657 136.518 194.248 136.367L194.466 136.313C194.703 133.97 194.791 131.338 195.263 129.026C188.381 128.359 181.737 128.296 174.848 128.13ZM175.075 119.742C170.401 119.346 165.171 118.676 160.487 119.161L156.789 119.411C156.693 121.301 156.576 123.297 156.61 125.182C159.694 125.184 163.97 124.95 166.963 125.278C175.444 126.211 183.996 126.169 192.462 126.839C193.497 126.91 194.728 127.029 195.75 127.051C195.91 125.353 196.062 123.17 196.094 121.461C194.587 121.393 192.937 121.162 191.435 120.932C185.993 120.095 180.538 120.204 175.075 119.742ZM158.831 112.207C158.037 112.322 158.106 112.18 157.651 112.63C156.569 117.409 157.917 116.626 161.954 116.715C163.914 116.759 166.37 116.556 168.263 116.785C175.002 117.598 181.742 118.148 188.52 118.532C190.464 118.644 194.621 119.699 196.206 119.55C196.584 118.138 197.739 114.615 197.492 113.487C196.029 112.451 191.084 112.639 189.178 112.608L178.587 112.478C171.984 112.449 165.365 112.214 158.831 112.207Z" fill="black"/>
<path fill-rule="evenodd" clip-rule="evenodd" d="M123.41 149.782C123.987 150.744 122.194 155.142 122.892 156.63C123.758 158.479 127.964 156.407 130.006 157.335C129.931 157.78 129.134 158.028 128.777 158.089C126.242 158.531 124.931 159.708 122.942 161.406C124.824 163.008 125.783 163.117 128.157 163.868C128.513 164.292 128.391 164.245 128.413 164.952C127.495 165.738 123.948 164.062 122.876 164.543C120.959 165.401 120.082 169.593 118.379 170.392C117.336 169.718 118.743 166.285 118.147 164.578C114.796 162.992 110.896 167.01 109.922 165.399C110.108 163.342 112.902 164.138 114.611 162.683C115.531 160.661 110.47 158.94 109.886 157.192C110.652 155.86 113.616 159.22 115.283 158.554C117.353 157.724 114.509 152.989 115.301 151.29C115.834 150.996 115.547 151.06 116.202 151.162C116.799 151.922 117.942 154.191 118.669 155.292C120.431 154.823 120.783 154.542 121.415 152.666C121.798 151.526 122.164 150.552 122.695 149.473L123.41 149.782ZM121.135 156.028C119.672 156.43 119.142 156.786 117.807 156.227C117.385 156.667 117.81 157.719 117.407 158.53C116.79 159.771 115.855 159.397 115.54 160.293C116.398 163.56 117.218 162.195 118.939 163.462C119.443 164.059 119.605 164.244 119.968 164.93C120.443 164.505 121.975 163.338 122.14 162.955C121.984 162.212 121.687 161.413 121.818 160.73C122.287 160.056 122.712 159.705 123.308 159.157C122.108 157.756 121.829 157.88 121.596 156.158L121.344 155.981L121.135 156.028Z" fill="black"/>
<path d="M92.8637 139.622C93.6759 141.805 93.7802 144.782 94.2949 147.116C95.8778 154.292 97.1082 161.65 98.8147 168.787C97.7359 168.997 96.5935 169.168 95.5051 169.347C95.1558 169.359 95.2908 169.371 94.9488 169.225C94.6604 168.624 93.6968 163.304 93.4981 162.309L89.8747 144.031C89.1197 140.083 88.6782 140.041 92.6131 139.49L92.8637 139.622Z" fill="black"/>
<path d="M82.2879 142.39C83.6049 142.647 84.9269 142.879 86.2527 143.087C85.7404 147.838 85.1305 152.576 84.4235 157.301C84.0946 159.565 83.5554 162.404 83.3735 164.625L79.4592 164.243C79.6968 161.974 80.318 159.652 80.59 157.377C81.1824 152.42 82.1637 147.377 82.2879 142.39Z" fill="black"/>
<path fill-rule="evenodd" clip-rule="evenodd" d="M164.923 77.141C165.983 78.233 163.357 81.892 164.742 84.5326C166.503 86.0004 170.978 82.9487 171.708 84.9474C171.393 85.3246 169.018 85.7094 168.175 86.157C166.685 86.9474 165.831 87.6722 164.56 88.7641C166.439 90.4597 167.909 90.7822 170.355 91.3631L169.572 92.9687C168.36 92.5113 167.172 92.0388 165.87 91.9544C162.172 91.7148 161.734 96.6789 160.693 97.6353C158.295 97.9907 160.144 94.3228 159.904 92.3363L159.875 92.1262C157.311 90.3164 153.792 93.4136 151.905 93.0576C151.443 92.6077 151.593 92.8731 151.461 92.2198C152.202 91.1624 155.207 91.0413 155.909 90.297C157.729 88.3597 151.751 86.2042 151.561 84.6073C152.659 83.3326 154.987 86.4449 156.63 86.0648C158.972 85.5223 156.041 79.9852 156.882 78.5607L157.333 78.5069C159.079 79.0397 158.876 82.2888 161.016 82.5855C162.647 81.9509 163.3 78.8241 164.211 77.0104L164.923 77.141ZM163.001 83.4092C161.325 83.8068 159.717 83.4948 159.164 84.3312L159.153 85.6802L159.003 85.8681C158.009 87.096 157.855 86.7343 157.211 87.4016C157.465 88.4601 157.788 88.8968 157.824 89.9818C159.086 90.1999 159.394 90.2029 160.512 90.8439C161.052 91.4837 161.115 91.722 161.41 92.4899C162.255 91.7075 162.863 91.1455 163.782 90.4627C163.1 88.2733 162.996 87.884 164.959 86.615C164.063 85.7922 163.497 85.1796 163.257 83.9285C163.227 83.7642 163.147 83.5042 163.001 83.4092Z" fill="black"/>
<path fill-rule="evenodd" clip-rule="evenodd" d="M28.0603 51.4608C28.3479 51.4826 28.6442 51.5298 28.9312 51.5685C29.0146 51.6774 29.0982 51.7863 29.1817 51.8952C28.9089 54.5906 27.8399 55.8772 28.5405 58.7385C29.7692 59.8637 33.3055 58.4923 35.4216 59.049L35.4634 59.2598C34.5108 59.8962 33.0232 60.1652 31.9848 60.629C30.9172 61.1057 29.3922 62.3444 28.515 63.123C29.9844 64.53 31.7524 65.334 33.7668 65.598L33.9561 65.6209L34.1339 65.891L33.6173 67.306C27.5669 65.3006 26.8461 66.5589 24.7703 72.3559C24.3758 72.1776 24.0565 71.9887 23.6833 71.7753C23.2733 71.0791 23.4685 70.1222 23.6705 69.3703C23.9806 68.2165 23.9301 67.7822 23.8908 66.5941C21.9516 64.4695 17.1882 67.8322 15.889 67.6421C15.4672 67.1705 15.4367 67.2807 15.332 66.7504C16.185 65.3963 18.5896 65.8414 20.0593 64.4639C20.9762 62.0972 15.9111 60.9098 15.5617 58.8672C16.7749 58.4019 19.7179 61.0321 21.3322 60.1226C22.2626 58.5557 20.6276 55.3889 20.5408 53.6072C20.5217 53.2128 20.764 53.1102 21.0486 52.8765C22.2803 52.8761 22.5074 54.3288 23.0886 55.33C25.7044 59.8366 27.321 53.416 28.0603 51.4608ZM27.0286 57.8623C25.3543 58.2266 24.6985 58.5567 23.1243 57.9236L23.1378 58.1492C23.239 60.0535 23.0539 60.7837 21.3126 61.5497C20.9354 62.5575 21.6594 62.8268 21.7275 64.2086C22.5104 64.8857 24.1267 64.3032 25.4068 66.4278L25.7516 66.4945C26.1931 66.1695 26.4968 65.904 26.9087 65.5401C27.5728 65.0042 27.5994 65.1586 27.8044 64.4881C27.3876 63.6893 27.185 63.7079 27.2185 62.9431C27.7353 61.9129 28.3791 61.6831 28.9352 60.8681C27.5535 60.0132 27.4839 59.3558 27.0286 57.8623Z" fill="black"/>
<path d="M170.318 46.5261C170.951 47.5085 171.427 48.6212 171.918 49.6855C170.27 50.6896 168.385 51.3256 166.825 52.1882C163.043 54.2792 156.911 56.9833 153.545 59.4403C153.14 58.8778 152.068 56.7089 151.553 55.8634C157.655 52.9631 163.613 49.1127 170.046 46.4278L170.318 46.5261Z" fill="black"/>
<path d="M164.866 30.295C165.863 31.1749 165.871 31.7489 167.136 32.6232L167.367 32.7822L167.363 33.0321C166.001 34.9903 160.905 40.5047 159.037 42.5222C155.87 45.9415 151.318 51.4945 148.074 54.5232C146.852 53.9762 146.102 53.1459 145.191 52.1956C146.542 50.2097 150.586 46.2195 152.454 44.1319L159.974 35.7038C161.479 33.9942 163.24 31.8185 164.866 30.295Z" fill="black"/>
<path d="M12.5034 31.025C13.6125 31.2613 14.889 31.1931 16.0244 31.25C18.5044 31.3744 40.0817 32.4815 40.4688 33.0543C40.9672 33.794 40.629 35.7258 40.5704 36.6265C38.1022 36.6434 35.209 36.1949 32.6913 36.0601C25.8173 35.6922 19.1385 35.1421 12.2441 35.0471C12.3877 33.5946 12.471 32.4974 12.5034 31.025Z" fill="black"/>
<path d="M21.8184 14.3063C23.4255 15.1361 25.1347 16.3954 26.7093 17.1383C31.0865 19.2031 36.2156 22.6812 40.757 24.1271C40.0693 25.2352 39.4635 26.5597 38.886 27.7418C38.5482 27.6242 34.7508 25.712 34.2497 25.4283C30.1268 23.094 23.7349 20.3163 20.0445 17.6845C20.3971 16.8385 21.3532 15.1752 21.8184 14.3063Z" fill="black"/>
<path fill-rule="evenodd" clip-rule="evenodd" d="M157.453 0.244477C158.218 1.45638 156.193 4.01147 157.006 7.2535C158.486 8.65031 161.705 6.99082 164.068 7.61786C163.531 8.56387 160.8 8.89582 159.607 9.73734C158.508 10.5126 158.007 10.9733 157.027 11.91C159.24 13.7592 160.569 13.2706 162.498 14.7885C162.644 14.9022 162.434 15.2648 162.342 15.5038C161.189 16.2557 159.14 14.3226 156.93 15.1098C154.315 16.0419 154.25 20.2649 152.562 20.8142C151.219 20.0974 153.055 16.4411 152.003 14.9259L151.723 14.8404C149.43 14.1312 146.66 15.5081 144.496 16.3887C144.108 16.0146 143.996 15.3993 143.834 14.864C145.283 14.4509 147.949 13.95 148.689 12.7627C148.839 10.3113 143.216 8.86166 144.096 7.31681C145.84 6.99156 147.722 10.0261 149.725 8.64157C150.723 7.13211 149.228 4.25672 149.089 2.52829C149.038 1.90141 149.19 1.88607 149.58 1.4837C151.241 1.18751 151.897 7.50259 154.471 4.85789C155.111 4.19893 156.114 1.07066 156.523 0L157.453 0.244477ZM152.858 7.02115L151.651 6.44396C151.783 8.75681 151.442 9.47396 149.38 10.5307C150.833 13.0491 149.656 12.686 152.8 13.7082C152.966 13.7619 153.776 15.0241 153.969 15.3253C154.502 14.9232 154.686 14.7499 155.145 14.2639C155.815 13.808 155.907 13.9094 156.159 13.294C155.676 10.9051 155.139 11.6541 157.322 9.51306C157.151 9.28013 157.021 9.18832 156.774 9.05037C155.866 8.54451 155.745 7.25881 155.64 6.34227L152.858 7.02115Z" fill="black"/>
</svg>
