<svg preserveAspectRatio="none" width="100%" height="100%" overflow="visible" style="display: block;" viewBox="0 0 37.7052 29.4558" fill="none" xmlns="http://www.w3.org/2000/svg">
<path id="Arrow 1" d="M37.1194 16.1421C37.9005 15.3611 37.9005 14.0948 37.1194 13.3137L24.3915 0.585787C23.6105 -0.195262 22.3441 -0.195262 21.5631 0.585787C20.782 1.36684 20.782 2.63317 21.5631 3.41421L32.8768 14.7279L21.5631 26.0416C20.782 26.8227 20.782 28.089 21.5631 28.8701C22.3441 29.6511 23.6105 29.6511 24.3915 28.8701L37.1194 16.1421ZM16.1421 16.1421C16.9232 15.3611 16.9232 14.0948 16.1421 13.3137L3.41421 0.585787C2.63317 -0.195262 1.36684 -0.195262 0.585787 0.585787C-0.195262 1.36684 -0.195262 2.63317 0.585787 3.41421L11.8995 14.7279L0.585787 26.0416C-0.195262 26.8227 -0.195262 28.089 0.585787 28.8701C1.36684 29.6511 2.63317 29.6511 3.41421 28.8701L16.1421 16.1421ZM34.2386 14.7279V16.7279H35.7052V14.7279V12.7279H34.2386V14.7279ZM13.7052 14.7279V16.7279H14.7279V14.7279V12.7279H13.7052V14.7279Z" fill="var(--stroke-0, white)"/>
</svg>
