<svg width="56" height="62" viewBox="0 0 56 62" fill="none" xmlns="http://www.w3.org/2000/svg">
<path d="M40.5693 46.3851C41.4554 46.1318 42.3798 46 43.3177 46H46.004C50.4223 46 54.004 49.5817 54.004 54C54.004 58.4183 50.4223 62 46.004 62H28.004H28.002H28H10C5.58172 62 2 58.4183 2 54C2 49.5817 5.58172 46 10 46H12.6863C13.6228 46 14.5457 46.1314 15.4305 46.3839L19.6921 36.5991C19.896 35.9873 20 35.3467 20 34.7018L19 28.6667C18.5635 28.9562 18.182 29.3326 17.8829 29.7812L11.6641 39.1094C11.2932 39.6658 10.6687 40 10 40H2C0.895431 40 0 39.1046 0 38C0 36.8954 0.895431 36 2 36H8.92963L14.5547 27.5624C15.9597 25.4549 18.274 24.1444 20.7868 24.0112C20.8568 24.0038 20.928 24 21 24C21.0237 24 21.0473 24.0004 21.0707 24.0012C21.1175 24.0004 21.1642 24 21.2111 24H34.7889C34.8356 24 34.8823 24.0004 34.9289 24.0012C34.9523 24.0004 34.9758 24 34.9995 24C35.0713 24 35.1423 24.0038 35.2122 24.0112C37.7254 24.144 40.0401 25.4546 41.4453 27.5624L47.0704 36H54C55.1046 36 56 36.8954 56 38C56 39.1046 55.1046 40 54 40H46C45.3313 40 44.7068 39.6658 44.3359 39.1094L38.1171 29.7812C37.8179 29.3324 37.4362 28.9559 36.9995 28.6663L35.9995 34.7018C35.9995 35.3467 36.1034 35.9873 36.3074 36.5991L40.5693 46.3851ZM36.9796 48.2651L32.5126 37.8641C32.1727 36.8444 31.9995 35.7766 31.9995 34.7018L32.9995 28H23L24 34.7018C24 35.7766 23.8267 36.8444 23.4868 37.8641L19.0208 48.2621C19.2761 48.4712 19.522 48.6936 19.7574 48.929L28.002 57.1736L36.2466 48.929C36.4809 48.6947 36.7256 48.4732 36.9796 48.2651ZM16.9289 51.7574C15.8037 50.6322 14.2776 50 12.6863 50H10C7.79086 50 6 51.7909 6 54C6 56.2091 7.79086 58 10 58H23.1716L16.9289 51.7574ZM39.0751 51.7574L32.8324 58H46.004C48.2131 58 50.004 56.2091 50.004 54C50.004 51.7909 48.2131 50 46.004 50H43.3177C41.7264 50 40.2003 50.6322 39.0751 51.7574ZM28 20C22.4772 20 18 15.5228 18 10C18 4.47715 22.4772 0 28 0C33.5228 0 38 4.47715 38 10C38 15.5228 33.5228 20 28 20ZM28 16C31.3137 16 34 13.3137 34 10C34 6.68629 31.3137 4 28 4C24.6863 4 22 6.68629 22 10C22 13.3137 24.6863 16 28 16Z" fill="black"/>
</svg>
