<svg preserveAspectRatio="none" width="100%" height="100%" overflow="visible" style="display: block;" viewBox="0 0 924 1082" fill="none" xmlns="http://www.w3.org/2000/svg">
<g id="Vector 1" opacity="0.3" filter="url(#filter0_f_14058_6149)">
<path d="M288.578 330.459C288.578 289.269 382.281 267.975 429.132 262.477C441.855 295.135 476.63 358.451 513.95 350.453C560.599 340.456 533.942 341.956 598.161 210.99C649.536 106.218 651.878 147.34 646.628 180.998C682.978 230.818 758.102 334.458 767.795 350.453C779.912 370.448 580.592 546.402 558.176 589.39C535.76 632.379 612.701 616.383 739.321 692.863C865.941 769.343 658.745 808.833 634.511 847.322C610.278 885.812 544.241 895.31 392.782 928.301C241.323 961.292 252.228 908.806 169.834 790.837C87.4405 672.868 226.177 752.347 252.228 739.351C278.279 726.354 501.833 566.396 497.592 529.906C493.351 493.416 288.578 381.945 288.578 330.459Z" fill="var(--fill-0, #05C9F5)"/>
</g>
<defs>
<filter id="filter0_f_14058_6149" x="6.50315e-07" y="1.25887e-06" width="924" height="1082" filterUnits="userSpaceOnUse" color-interpolation-filters="sRGB">
<feFlood flood-opacity="0" result="BackgroundImageFix"/>
<feBlend mode="normal" in="SourceGraphic" in2="BackgroundImageFix" result="shape"/>
<feGaussianBlur stdDeviation="72" result="effect1_foregroundBlur_14058_6149"/>
</filter>
</defs>
</svg>
