<svg preserveAspectRatio="none" width="100%" height="100%" overflow="visible" style="display: block;" viewBox="0 0 50.4456 60" fill="none" xmlns="http://www.w3.org/2000/svg">
<g id="Group">
<path id="Vector" d="M48.6877 29.0624H45.4064C44.4356 29.0624 43.6486 29.8494 43.6486 30.8202C43.6486 31.7515 44.3734 32.5116 45.2893 32.572V41.1327C45.2893 42.8128 43.9225 44.1796 42.2425 44.1796H41.8864C41.9478 43.8864 41.9805 43.5826 41.9805 43.2714V42.1288C41.9805 40.071 40.8572 38.2717 39.1923 37.3084C39.8927 36.1519 40.1662 34.7745 39.9463 33.4116L38.4376 24.0636C38.0086 21.4052 38.138 19.0627 38.8573 16.4679C38.8573 16.4679 39.8316 12.9527 39.8318 12.9517C40.5362 10.4101 38.9959 7.7182 36.4581 7.03102L35.033 6.64488C34.1137 6.39574 33.4949 5.71453 33.3354 4.77574C32.8651 2.00848 30.4847 0 27.6751 0H22.9002C20.0998 0 17.7206 2.00063 17.2431 4.75711C17.0807 5.69438 16.4606 6.37348 15.5419 6.62016C15.5419 6.62016 14.0007 7.03406 13.999 7.03453C11.4915 7.68539 9.92988 10.4844 10.6153 12.9581L11.5881 16.4677C12.3073 19.0629 12.4368 21.4055 12.0077 24.0635L10.4991 33.4114C10.2791 34.7743 10.5526 36.1519 11.253 37.3083C9.58828 38.2716 8.46492 40.0709 8.46492 42.1288V43.2714C8.46492 43.5826 8.49762 43.8864 8.55902 44.1796H8.20312C6.52312 44.1796 5.15625 42.8128 5.15625 41.1327V32.572C6.07219 32.5114 6.79687 31.7514 6.79687 30.8202C6.79687 29.8494 6.00984 29.0624 5.03906 29.0624H1.75781C0.787031 29.0624 0 29.8494 0 30.8202C0 31.7514 0.724687 32.5114 1.64062 32.572V41.1327C1.64062 44.7513 4.58461 47.6952 8.20312 47.6952H23.2891V52.622H14.2657C11.2287 52.622 8.75789 55.0928 8.75789 58.1298V58.2422C8.75789 59.213 9.54492 60 10.5157 60C11.4865 60 12.2735 59.213 12.2735 58.2422V58.1298C12.2735 57.0313 13.1672 56.1376 14.2657 56.1376H23.2891V58.2421C23.2891 59.2129 24.0762 59.9999 25.047 59.9999C26.0177 59.9999 26.8048 59.2129 26.8048 58.2421V56.1376H35.8282C36.9267 56.1376 37.8204 57.0313 37.8204 58.1298V58.2421C37.8204 59.2129 38.6074 59.9999 39.5782 59.9999C40.549 59.9999 41.336 59.2129 41.336 58.2421V58.1298C41.336 55.0928 38.8652 52.622 35.8282 52.622H26.8048V47.6952H42.2425C45.861 47.6952 48.805 44.7513 48.805 41.1327V32.572C49.7208 32.5114 50.4456 31.7514 50.4456 30.8202C50.4455 29.8494 49.6584 29.0624 48.6877 29.0624ZM14.9761 15.5289C14.9761 15.5289 14.0048 12.0244 14.0033 12.0192C13.8125 11.3306 14.2266 10.6137 14.9112 10.4298L16.4538 10.0154C18.6833 9.41684 20.3132 7.63184 20.7071 5.35723C20.895 4.27289 21.7969 3.51562 22.9003 3.51562H27.6752C28.7646 3.51562 29.6875 4.29328 29.8697 5.36473C30.2569 7.64285 31.8832 9.43359 34.1137 10.0379C34.1137 10.0379 35.5352 10.4231 35.539 10.4242C36.2265 10.6105 36.6335 11.3292 36.444 12.0127L35.4695 15.5289C34.6083 18.6359 34.4535 21.4409 34.9671 24.6237C34.9671 24.6237 36.4727 33.9527 36.4758 33.9716C36.69 35.2991 35.6166 36.5529 34.2777 36.5529H31.668V13.125C31.668 12.1542 30.881 11.3672 29.9102 11.3672H20.5352C19.5645 11.3672 18.7774 12.1542 18.7774 13.125V36.5529C18.7774 36.5529 16.173 36.5529 16.1679 36.5529C14.8189 36.5529 13.7559 35.2965 13.9698 33.9716L15.4785 24.6237C15.9922 21.4411 15.8373 18.6361 14.9761 15.5289ZM28.1524 14.8828V36.5529H22.293V14.8828H28.1524ZM38.4649 43.2714C38.4649 43.7637 38.049 44.1796 37.5567 44.1796H12.8887C12.3964 44.1796 11.9805 43.7637 11.9805 43.2714V42.1288C11.9805 40.998 12.9006 40.078 14.0313 40.078H36.4141C37.5449 40.078 38.4649 40.998 38.4649 42.1288V43.2714Z" fill="var(--fill-0, #05C9F5)"/>
</g>
</svg>
