<svg preserveAspectRatio="none" width="100%" height="100%" overflow="visible" style="display: block;" viewBox="0 0 60 60" fill="none" xmlns="http://www.w3.org/2000/svg">
<g id="WaveTriangle">
<path id="Vector" d="M55.8937 31.0969L43.7062 47.9719C43.5327 48.2138 43.3039 48.4109 43.039 48.5469C42.7741 48.6829 42.4806 48.7538 42.1828 48.7538C41.885 48.7538 41.5915 48.6829 41.3266 48.5469C41.0617 48.4109 40.833 48.2138 40.6594 47.9719L17.8125 16.3266L7.14609 31.0922C7.00205 31.2923 6.82001 31.462 6.61037 31.5917C6.40073 31.7214 6.1676 31.8085 5.92428 31.8482C5.68096 31.8878 5.43223 31.8791 5.19227 31.8225C4.95232 31.766 4.72584 31.6628 4.52578 31.5188C4.32572 31.3747 4.15599 31.1927 4.02628 30.983C3.89657 30.7734 3.80943 30.5403 3.76982 30.2969C3.73021 30.0536 3.73891 29.8049 3.79543 29.5649C3.85195 29.325 3.95518 29.0985 4.09922 28.8984L16.2867 12.0234C16.4603 11.7815 16.689 11.5844 16.954 11.4484C17.2189 11.3124 17.5124 11.2415 17.8102 11.2415C18.1079 11.2415 18.4014 11.3124 18.6664 11.4484C18.9313 11.5844 19.16 11.7815 19.3336 12.0234L42.1875 43.6641L52.8539 28.8984C52.9979 28.6984 53.18 28.5286 53.3896 28.3989C53.5993 28.2692 53.8324 28.1821 54.0757 28.1425C54.319 28.1029 54.5678 28.1116 54.8077 28.1681C55.0477 28.2246 55.2742 28.3278 55.4742 28.4719C55.6743 28.6159 55.844 28.798 55.9737 29.0076C56.1034 29.2172 56.1906 29.4504 56.2302 29.6937C56.2698 29.937 56.2611 30.1857 56.2046 30.4257C56.1481 30.6657 56.0448 30.8921 55.9008 31.0922L55.8937 31.0969Z" fill="var(--fill-0, #05C9F5)"/>
</g>
</svg>
