<svg preserveAspectRatio="none" width="100%" height="100%" overflow="visible" style="display: block;" viewBox="0 0 60 60" fill="none" xmlns="http://www.w3.org/2000/svg">
<g id="Angle">
<path id="Vector" d="M22.5 16.875C22.5 16.3777 22.6975 15.9008 23.0492 15.5492C23.4008 15.1975 23.8777 15 24.375 15C30.8376 15.0068 37.0335 17.5771 41.6032 22.1468C46.1729 26.7165 48.7432 32.9124 48.75 39.375C48.75 39.8723 48.5525 40.3492 48.2008 40.7008C47.8492 41.0525 47.3723 41.25 46.875 41.25C46.3777 41.25 45.9008 41.0525 45.5492 40.7008C45.1975 40.3492 45 39.8723 45 39.375C44.9938 33.9068 42.8188 28.6644 38.9522 24.7978C35.0856 20.9312 29.8432 18.7562 24.375 18.75C23.8777 18.75 23.4008 18.5525 23.0492 18.2008C22.6975 17.8492 22.5 17.3723 22.5 16.875ZM56.25 45H18.75V7.5C18.75 7.00272 18.5525 6.52581 18.2008 6.17417C17.8492 5.82254 17.3723 5.625 16.875 5.625C16.3777 5.625 15.9008 5.82254 15.5492 6.17417C15.1975 6.52581 15 7.00272 15 7.5V15H7.5C7.00272 15 6.52581 15.1975 6.17417 15.5492C5.82254 15.9008 5.625 16.3777 5.625 16.875C5.625 17.3723 5.82254 17.8492 6.17417 18.2008C6.52581 18.5525 7.00272 18.75 7.5 18.75H15V46.875C15 47.3723 15.1975 47.8492 15.5492 48.2008C15.9008 48.5525 16.3777 48.75 16.875 48.75H56.25C56.7473 48.75 57.2242 48.5525 57.5758 48.2008C57.9275 47.8492 58.125 47.3723 58.125 46.875C58.125 46.3777 57.9275 45.9008 57.5758 45.5492C57.2242 45.1975 56.7473 45 56.25 45Z" fill="var(--fill-0, #05C9F5)"/>
</g>
</svg>
