<svg preserveAspectRatio="none" width="100%" height="100%" overflow="visible" style="display: block;" viewBox="0 0 72 72" fill="none" xmlns="http://www.w3.org/2000/svg">
<g id="quotes">
<path id="Vector" d="M65.5281 12.8961C69.573 17.3548 72 22.2188 72 30.3254C72 44.512 61.8876 57.0772 47.7303 63.5625L44.0899 58.2932C57.4382 50.9972 60.2697 41.6746 61.0787 35.5947C59.0562 36.8107 56.2247 37.216 53.3933 36.8107C46.1124 36 40.4494 30.3254 40.4494 22.6241C40.4494 18.9761 42.0674 15.3281 44.4944 12.4908C47.3258 9.65349 50.5618 8.4375 54.6067 8.4375C59.0562 8.4375 63.1011 10.4642 65.5281 12.8961ZM25.0787 12.8961C29.1236 17.3548 31.5506 22.2188 31.5506 30.3254C31.5506 44.512 21.4382 57.0772 7.2809 63.5625L3.64045 58.2932C16.9888 50.9972 19.8202 41.6746 20.6292 35.5947C18.6067 36.8107 15.7753 37.216 12.9438 36.8107C5.66292 36 0 29.92 0 22.6241C0 18.9761 1.61798 15.3281 4.04494 12.4908C6.8764 9.65349 10.1124 8.4375 14.1573 8.4375C18.6067 8.4375 22.6517 10.4642 25.0787 12.8961Z" fill="var(--fill-0, #05C9F5)"/>
</g>
</svg>
