<svg width="56" height="62" viewBox="0 0 56 62" fill="none" xmlns="http://www.w3.org/2000/svg">
<path d="M40.0005 32.6063V37.0151C40.0005 37.8328 39.9002 45.6473 39.7019 46.4405L37.6158 47.7848C39.2786 46.6307 41.2657 46 43.3177 46H46.004C50.4223 46 54.004 49.5817 54.004 54C54.004 58.4183 50.4223 62 46.004 62H28.004H28.002H28H10C5.58172 62 2 58.4183 2 54C2 49.5817 5.58172 46 10 46H12.6863C14.7366 46 16.722 46.6297 18.3839 47.7819L16.2986 46.4405C16.1003 45.6473 16 37.8328 16 37.0151V32.6055L11.6641 39.1094C11.2932 39.6658 10.6687 40 10 40H2C0.895431 40 0 39.1046 0 38C0 36.8954 0.895431 36 2 36H8.92963L14.5547 27.5624C16.0384 25.3368 18.5363 24 21.2111 24H34.7889C37.4637 24 39.9616 25.3368 41.4453 27.5624L47.0704 36H54C55.1046 36 56 36.8954 56 38C56 39.1046 55.1046 40 54 40H46C45.3313 40 44.7068 39.6658 44.3359 39.1094L40.0005 32.6063ZM36.0005 28.1879C35.6136 28.0649 35.2056 28 34.7889 28H21.2111C20.7946 28 20.3867 28.0648 20 28.1877V37.0151C20 37.5057 20.0602 44.9945 20.1791 45.4704L23.8059 52.9775L28.002 57.1736L32.1934 52.9822L35.8213 45.4704C35.9403 44.9945 36.0005 37.5057 36.0005 37.0151V28.1879ZM16.9289 51.7574C15.8037 50.6322 14.2776 50 12.6863 50H10C7.79086 50 6 51.7909 6 54C6 56.2091 7.79086 58 10 58H23.1716L16.9289 51.7574ZM39.0751 51.7574L32.8324 58H46.004C48.2131 58 50.004 56.2091 50.004 54C50.004 51.7909 48.2131 50 46.004 50H43.3177C41.7264 50 40.2003 50.6322 39.0751 51.7574ZM28 20C22.4772 20 18 15.5228 18 10C18 4.47715 22.4772 0 28 0C33.5228 0 38 4.47715 38 10C38 15.5228 33.5228 20 28 20ZM28 16C31.3137 16 34 13.3137 34 10C34 6.68629 31.3137 4 28 4C24.6863 4 22 6.68629 22 10C22 13.3137 24.6863 16 28 16Z" fill="black"/>
</svg>
